{
    "asset" : {
        "generator" : "Khronos glTF Blender I/O v1.1.46",
        "version" : "2.0"
    },
    "scene" : 0,
    "scenes" : [
        {
            "name" : "Scene",
            "nodes" : [
                7
            ]
        }
    ],
    "nodes" : [
        {
            "mesh" : 0,
            "name" : "body",
            "rotation" : [
                1,
                0,
                0,
                -1.3435885648505064e-07
            ]
        },
        {
            "mesh" : 1,
            "name" : "button_enter",
            "rotation" : [
                1,
                0,
                0,
                -1.3435885648505064e-07
            ]
        },
        {
            "mesh" : 2,
            "name" : "button_grip",
            "rotation" : [
                1,
                0,
                0,
                -1.3435885648505064e-07
            ]
        },
        {
            "mesh" : 3,
            "name" : "button_x",
            "rotation" : [
                1,
                0,
                0,
                -1.3435885648505064e-07
            ]
        },
        {
            "mesh" : 4,
            "name" : "button_y",
            "rotation" : [
                1,
                0,
                0,
                -1.3435885648505064e-07
            ]
        },
        {
            "mesh" : 5,
            "name" : "thumbstick",
            "rotation" : [
                1,
                0,
                0,
                -1.3435885648505064e-07
            ]
        },
        {
            "mesh" : 6,
            "name" : "trigger",
            "rotation" : [
                1,
                0,
                0,
                -1.3435885648505064e-07
            ]
        },
        {
            "children" : [
                0,
                1,
                2,
                3,
                4,
                5,
                6
            ],
            "name" : "root",
            "rotation" : [
                0.31456658244132996,
                0,
                0,
                0.9492354393005371
            ],
            "translation" : [
                -0.004999999888241291,
                0.03500000014901161,
                -0.03999999910593033
            ]
        }
    ],
    "meshes" : [
        {
            "name" : "l_body",
            "primitives" : [
                {
                    "attributes" : {
                        "POSITION" : 0,
                        "NORMAL" : 1,
                        "TANGENT" : 2,
                        "TEXCOORD_0" : 3
                    },
                    "indices" : 4
                }
            ]
        },
        {
            "name" : "l_button_enter",
            "primitives" : [
                {
                    "attributes" : {
                        "POSITION" : 5,
                        "NORMAL" : 6,
                        "TANGENT" : 7,
                        "TEXCOORD_0" : 8
                    },
                    "indices" : 9
                }
            ]
        },
        {
            "name" : "l_button_grip",
            "primitives" : [
                {
                    "attributes" : {
                        "POSITION" : 10,
                        "NORMAL" : 11,
                        "TANGENT" : 12,
                        "TEXCOORD_0" : 13
                    },
                    "indices" : 14
                }
            ]
        },
        {
            "name" : "l_button_x",
            "primitives" : [
                {
                    "attributes" : {
                        "POSITION" : 15,
                        "NORMAL" : 16,
                        "TANGENT" : 17,
                        "TEXCOORD_0" : 18
                    },
                    "indices" : 19
                }
            ]
        },
        {
            "name" : "l_button_y",
            "primitives" : [
                {
                    "attributes" : {
                        "POSITION" : 20,
                        "NORMAL" : 21,
                        "TANGENT" : 22,
                        "TEXCOORD_0" : 23
                    },
                    "indices" : 19
                }
            ]
        },
        {
            "name" : "l_thumbstick",
            "primitives" : [
                {
                    "attributes" : {
                        "POSITION" : 24,
                        "NORMAL" : 25,
                        "TANGENT" : 26,
                        "TEXCOORD_0" : 27
                    },
                    "indices" : 28
                }
            ]
        },
        {
            "name" : "l_trigger",
            "primitives" : [
                {
                    "attributes" : {
                        "POSITION" : 29,
                        "NORMAL" : 30,
                        "TANGENT" : 31,
                        "TEXCOORD_0" : 32
                    },
                    "indices" : 33
                }
            ]
        }
    ],
    "accessors" : [
        {
            "bufferView" : 0,
            "componentType" : 5126,
            "count" : 2810,
            "max" : [
                0.041844598948955536,
                0.038068097084760666,
                -0.025608865544199944
            ],
            "min" : [
                -0.04691599681973457,
                -0.06320149451494217,
                -0.14128603041172028
            ],
            "type" : "VEC3"
        },
        {
            "bufferView" : 1,
            "componentType" : 5126,
            "count" : 2810,
            "type" : "VEC3"
        },
        {
            "bufferView" : 2,
            "componentType" : 5126,
            "count" : 2810,
            "type" : "VEC4"
        },
        {
            "bufferView" : 3,
            "componentType" : 5126,
            "count" : 2810,
            "type" : "VEC2"
        },
        {
            "bufferView" : 4,
            "componentType" : 5123,
            "count" : 9792,
            "type" : "SCALAR"
        },
        {
            "bufferView" : 5,
            "componentType" : 5126,
            "count" : 139,
            "max" : [
                0.0019017683807760477,
                -0.0028177397325634956,
                -0.07061447203159332
            ],
            "min" : [
                -0.007115453016012907,
                -0.01002572849392891,
                -0.07856263965368271
            ],
            "type" : "VEC3"
        },
        {
            "bufferView" : 6,
            "componentType" : 5126,
            "count" : 139,
            "type" : "VEC3"
        },
        {
            "bufferView" : 7,
            "componentType" : 5126,
            "count" : 139,
            "type" : "VEC4"
        },
        {
            "bufferView" : 8,
            "componentType" : 5126,
            "count" : 139,
            "type" : "VEC2"
        },
        {
            "bufferView" : 9,
            "componentType" : 5123,
            "count" : 318,
            "type" : "SCALAR"
        },
        {
            "bufferView" : 10,
            "componentType" : 5126,
            "count" : 256,
            "max" : [
                0.01617508754134178,
                0.022250480949878693,
                -0.07874051481485367
            ],
            "min" : [
                0.004239961970597506,
                -0.000737955211661756,
                -0.09741977602243423
            ],
            "type" : "VEC3"
        },
        {
            "bufferView" : 11,
            "componentType" : 5126,
            "count" : 256,
            "type" : "VEC3"
        },
        {
            "bufferView" : 12,
            "componentType" : 5126,
            "count" : 256,
            "type" : "VEC4"
        },
        {
            "bufferView" : 13,
            "componentType" : 5126,
            "count" : 256,
            "type" : "VEC2"
        },
        {
            "bufferView" : 14,
            "componentType" : 5123,
            "count" : 948,
            "type" : "SCALAR"
        },
        {
            "bufferView" : 15,
            "componentType" : 5126,
            "count" : 168,
            "max" : [
                0.010148393921554089,
                0.006749385967850685,
                -0.054064299911260605
            ],
            "min" : [
                0.00013100150681566447,
                -0.0009136638836935163,
                -0.06365612149238586
            ],
            "type" : "VEC3"
        },
        {
            "bufferView" : 16,
            "componentType" : 5126,
            "count" : 168,
            "type" : "VEC3"
        },
        {
            "bufferView" : 17,
            "componentType" : 5126,
            "count" : 168,
            "type" : "VEC4"
        },
        {
            "bufferView" : 18,
            "componentType" : 5126,
            "count" : 168,
            "type" : "VEC2"
        },
        {
            "bufferView" : 19,
            "componentType" : 5123,
            "count" : 564,
            "type" : "SCALAR"
        },
        {
            "bufferView" : 20,
            "componentType" : 5126,
            "count" : 168,
            "max" : [
                0.014141915366053581,
                0.013882815837860107,
                -0.04240867868065834
            ],
            "min" : [
                0.0041245222091674805,
                0.0062197670340538025,
                -0.0520004965364933
            ],
            "type" : "VEC3"
        },
        {
            "bufferView" : 21,
            "componentType" : 5126,
            "count" : 168,
            "type" : "VEC3"
        },
        {
            "bufferView" : 22,
            "componentType" : 5126,
            "count" : 168,
            "type" : "VEC4"
        },
        {
            "bufferView" : 23,
            "componentType" : 5126,
            "count" : 168,
            "type" : "VEC2"
        },
        {
            "bufferView" : 24,
            "componentType" : 5126,
            "count" : 253,
            "max" : [
                -0.003630275372415781,
                0.014366702176630497,
                -0.03730194270610809
            ],
            "min" : [
                -0.01861845701932907,
                -0.0003556958108674735,
                -0.053319837898015976
            ],
            "type" : "VEC3"
        },
        {
            "bufferView" : 25,
            "componentType" : 5126,
            "count" : 253,
            "type" : "VEC3"
        },
        {
            "bufferView" : 26,
            "componentType" : 5126,
            "count" : 253,
            "type" : "VEC4"
        },
        {
            "bufferView" : 27,
            "componentType" : 5126,
            "count" : 253,
            "type" : "VEC2"
        },
        {
            "bufferView" : 28,
            "componentType" : 5123,
            "count" : 1182,
            "type" : "SCALAR"
        },
        {
            "bufferView" : 29,
            "componentType" : 5126,
            "count" : 192,
            "max" : [
                0.010005033574998379,
                0.043761346489191055,
                -0.03717787563800812
            ],
            "min" : [
                -0.015667827799916267,
                0.024916749447584152,
                -0.06235586851835251
            ],
            "type" : "VEC3"
        },
        {
            "bufferView" : 30,
            "componentType" : 5126,
            "count" : 192,
            "type" : "VEC3"
        },
        {
            "bufferView" : 31,
            "componentType" : 5126,
            "count" : 192,
            "type" : "VEC4"
        },
        {
            "bufferView" : 32,
            "componentType" : 5126,
            "count" : 192,
            "type" : "VEC2"
        },
        {
            "bufferView" : 33,
            "componentType" : 5123,
            "count" : 948,
            "type" : "SCALAR"
        }
    ],
    "bufferViews" : [
        {
            "buffer" : 0,
            "byteLength" : 33720,
            "byteOffset" : 0
        },
        {
            "buffer" : 0,
            "byteLength" : 33720,
            "byteOffset" : 33720
        },
        {
            "buffer" : 0,
            "byteLength" : 44960,
            "byteOffset" : 67440
        },
        {
            "buffer" : 0,
            "byteLength" : 22480,
            "byteOffset" : 112400
        },
        {
            "buffer" : 0,
            "byteLength" : 19584,
            "byteOffset" : 134880
        },
        {
            "buffer" : 0,
            "byteLength" : 1668,
            "byteOffset" : 154464
        },
        {
            "buffer" : 0,
            "byteLength" : 1668,
            "byteOffset" : 156132
        },
        {
            "buffer" : 0,
            "byteLength" : 2224,
            "byteOffset" : 157800
        },
        {
            "buffer" : 0,
            "byteLength" : 1112,
            "byteOffset" : 160024
        },
        {
            "buffer" : 0,
            "byteLength" : 636,
            "byteOffset" : 161136
        },
        {
            "buffer" : 0,
            "byteLength" : 3072,
            "byteOffset" : 161772
        },
        {
            "buffer" : 0,
            "byteLength" : 3072,
            "byteOffset" : 164844
        },
        {
            "buffer" : 0,
            "byteLength" : 4096,
            "byteOffset" : 167916
        },
        {
            "buffer" : 0,
            "byteLength" : 2048,
            "byteOffset" : 172012
        },
        {
            "buffer" : 0,
            "byteLength" : 1896,
            "byteOffset" : 174060
        },
        {
            "buffer" : 0,
            "byteLength" : 2016,
            "byteOffset" : 175956
        },
        {
            "buffer" : 0,
            "byteLength" : 2016,
            "byteOffset" : 177972
        },
        {
            "buffer" : 0,
            "byteLength" : 2688,
            "byteOffset" : 179988
        },
        {
            "buffer" : 0,
            "byteLength" : 1344,
            "byteOffset" : 182676
        },
        {
            "buffer" : 0,
            "byteLength" : 1128,
            "byteOffset" : 184020
        },
        {
            "buffer" : 0,
            "byteLength" : 2016,
            "byteOffset" : 185148
        },
        {
            "buffer" : 0,
            "byteLength" : 2016,
            "byteOffset" : 187164
        },
        {
            "buffer" : 0,
            "byteLength" : 2688,
            "byteOffset" : 189180
        },
        {
            "buffer" : 0,
            "byteLength" : 1344,
            "byteOffset" : 191868
        },
        {
            "buffer" : 0,
            "byteLength" : 3036,
            "byteOffset" : 193212
        },
        {
            "buffer" : 0,
            "byteLength" : 3036,
            "byteOffset" : 196248
        },
        {
            "buffer" : 0,
            "byteLength" : 4048,
            "byteOffset" : 199284
        },
        {
            "buffer" : 0,
            "byteLength" : 2024,
            "byteOffset" : 203332
        },
        {
            "buffer" : 0,
            "byteLength" : 2364,
            "byteOffset" : 205356
        },
        {
            "buffer" : 0,
            "byteLength" : 2304,
            "byteOffset" : 207720
        },
        {
            "buffer" : 0,
            "byteLength" : 2304,
            "byteOffset" : 210024
        },
        {
            "buffer" : 0,
            "byteLength" : 3072,
            "byteOffset" : 212328
        },
        {
            "buffer" : 0,
            "byteLength" : 1536,
            "byteOffset" : 215400
        },
        {
            "buffer" : 0,
            "byteLength" : 1896,
            "byteOffset" : 216936
        }
    ],
    "buffers" : [
        {
            "byteLength" : 218832,
            "uri" : "LeftTouchController.bin"
        }
    ]
}
