{
    "asset" : {
        "generator" : "Khronos glTF Blender I/O v1.1.46",
        "version" : "2.0"
    },
    "scene" : 0,
    "scenes" : [
        {
            "name" : "Scene",
            "nodes" : [
                7
            ]
        }
    ],
    "nodes" : [
        {
            "mesh" : 0,
            "name" : "body",
            "rotation" : [
                1,
                0,
                0,
                -1.3435885648505064e-07
            ]
        },
        {
            "mesh" : 1,
            "name" : "button_a",
            "rotation" : [
                1,
                0,
                0,
                -1.3435885648505064e-07
            ]
        },
        {
            "mesh" : 2,
            "name" : "button_b",
            "rotation" : [
                1,
                0,
                0,
                -1.3435885648505064e-07
            ]
        },
        {
            "mesh" : 3,
            "name" : "button_enter",
            "rotation" : [
                1,
                0,
                0,
                -1.3435885648505064e-07
            ]
        },
        {
            "mesh" : 4,
            "name" : "button_grip",
            "rotation" : [
                1,
                0,
                0,
                -1.3435885648505064e-07
            ]
        },
        {
            "mesh" : 5,
            "name" : "thumbstick",
            "rotation" : [
                1,
                0,
                0,
                -1.3435885648505064e-07
            ]
        },
        {
            "mesh" : 6,
            "name" : "trigger",
            "rotation" : [
                1,
                0,
                0,
                -1.3435885648505064e-07
            ]
        },
        {
            "children" : [
                0,
                1,
                2,
                3,
                4,
                5,
                6
            ],
            "name" : "root",
            "rotation" : [
                0.31456658244132996,
                0,
                0,
                0.9492354393005371
            ],
            "translation" : [
                0.004999999888241291,
                0.03500000014901161,
                -0.03999999910593033
            ]
        }
    ],
    "meshes" : [
        {
            "name" : "r_body",
            "primitives" : [
                {
                    "attributes" : {
                        "POSITION" : 0,
                        "NORMAL" : 1,
                        "TANGENT" : 2,
                        "TEXCOORD_0" : 3
                    },
                    "indices" : 4
                }
            ]
        },
        {
            "name" : "r_button_a",
            "primitives" : [
                {
                    "attributes" : {
                        "POSITION" : 5,
                        "NORMAL" : 6,
                        "TANGENT" : 7,
                        "TEXCOORD_0" : 8
                    },
                    "indices" : 9
                }
            ]
        },
        {
            "name" : "r_button_b",
            "primitives" : [
                {
                    "attributes" : {
                        "POSITION" : 10,
                        "NORMAL" : 11,
                        "TANGENT" : 12,
                        "TEXCOORD_0" : 13
                    },
                    "indices" : 9
                }
            ]
        },
        {
            "name" : "r_button_enter",
            "primitives" : [
                {
                    "attributes" : {
                        "POSITION" : 14,
                        "NORMAL" : 15,
                        "TANGENT" : 16,
                        "TEXCOORD_0" : 17
                    },
                    "indices" : 18
                }
            ]
        },
        {
            "name" : "r_button_grip",
            "primitives" : [
                {
                    "attributes" : {
                        "POSITION" : 19,
                        "NORMAL" : 20,
                        "TANGENT" : 21,
                        "TEXCOORD_0" : 22
                    },
                    "indices" : 23
                }
            ]
        },
        {
            "name" : "r_thumbstick",
            "primitives" : [
                {
                    "attributes" : {
                        "POSITION" : 24,
                        "NORMAL" : 25,
                        "TANGENT" : 26,
                        "TEXCOORD_0" : 27
                    },
                    "indices" : 28
                }
            ]
        },
        {
            "name" : "r_trigger",
            "primitives" : [
                {
                    "attributes" : {
                        "POSITION" : 29,
                        "NORMAL" : 30,
                        "TANGENT" : 31,
                        "TEXCOORD_0" : 32
                    },
                    "indices" : 33
                }
            ]
        }
    ],
    "accessors" : [
        {
            "bufferView" : 0,
            "componentType" : 5126,
            "count" : 2810,
            "max" : [
                0.047101184725761414,
                0.03809119760990143,
                -0.025611305609345436
            ],
            "min" : [
                -0.04165447875857353,
                -0.06317348033189774,
                -0.14128664135932922
            ],
            "type" : "VEC3"
        },
        {
            "bufferView" : 1,
            "componentType" : 5126,
            "count" : 2810,
            "type" : "VEC3"
        },
        {
            "bufferView" : 2,
            "componentType" : 5126,
            "count" : 2810,
            "type" : "VEC4"
        },
        {
            "bufferView" : 3,
            "componentType" : 5126,
            "count" : 2810,
            "type" : "VEC2"
        },
        {
            "bufferView" : 4,
            "componentType" : 5123,
            "count" : 9792,
            "type" : "SCALAR"
        },
        {
            "bufferView" : 5,
            "componentType" : 5126,
            "count" : 168,
            "max" : [
                -0.00034015681012533605,
                0.006623867433518171,
                -0.05406492203474045
            ],
            "min" : [
                -0.010343248955905437,
                -0.0010241852141916752,
                -0.06365685164928436
            ],
            "type" : "VEC3"
        },
        {
            "bufferView" : 6,
            "componentType" : 5126,
            "count" : 168,
            "type" : "VEC3"
        },
        {
            "bufferView" : 7,
            "componentType" : 5126,
            "count" : 168,
            "type" : "VEC4"
        },
        {
            "bufferView" : 8,
            "componentType" : 5126,
            "count" : 168,
            "type" : "VEC2"
        },
        {
            "bufferView" : 9,
            "componentType" : 5123,
            "count" : 564,
            "type" : "SCALAR"
        },
        {
            "bufferView" : 10,
            "componentType" : 5126,
            "count" : 168,
            "max" : [
                -0.004463394172489643,
                0.013682746328413486,
                -0.04240907356142998
            ],
            "min" : [
                -0.014466486871242523,
                0.006034693215042353,
                -0.05200100317597389
            ],
            "type" : "VEC3"
        },
        {
            "bufferView" : 11,
            "componentType" : 5126,
            "count" : 168,
            "type" : "VEC3"
        },
        {
            "bufferView" : 12,
            "componentType" : 5126,
            "count" : 168,
            "type" : "VEC4"
        },
        {
            "bufferView" : 13,
            "componentType" : 5126,
            "count" : 168,
            "type" : "VEC2"
        },
        {
            "bufferView" : 14,
            "componentType" : 5126,
            "count" : 139,
            "max" : [
                0.007096600718796253,
                -0.0027921772561967373,
                -0.07061535865068436
            ],
            "min" : [
                -0.0019398332806304097,
                -0.009999904781579971,
                -0.07856367528438568
            ],
            "type" : "VEC3"
        },
        {
            "bufferView" : 15,
            "componentType" : 5126,
            "count" : 139,
            "type" : "VEC3"
        },
        {
            "bufferView" : 16,
            "componentType" : 5126,
            "count" : 139,
            "type" : "VEC4"
        },
        {
            "bufferView" : 17,
            "componentType" : 5126,
            "count" : 139,
            "type" : "VEC2"
        },
        {
            "bufferView" : 18,
            "componentType" : 5123,
            "count" : 318,
            "type" : "SCALAR"
        },
        {
            "bufferView" : 19,
            "componentType" : 5126,
            "count" : 256,
            "max" : [
                -0.004784003831446171,
                0.02208631858229637,
                -0.07874077558517456
            ],
            "min" : [
                -0.01644296944141388,
                -0.0009343185811303556,
                -0.09742036461830139
            ],
            "type" : "VEC3"
        },
        {
            "bufferView" : 20,
            "componentType" : 5126,
            "count" : 256,
            "type" : "VEC3"
        },
        {
            "bufferView" : 21,
            "componentType" : 5126,
            "count" : 256,
            "type" : "VEC4"
        },
        {
            "bufferView" : 22,
            "componentType" : 5126,
            "count" : 256,
            "type" : "VEC2"
        },
        {
            "bufferView" : 23,
            "componentType" : 5123,
            "count" : 948,
            "type" : "SCALAR"
        },
        {
            "bufferView" : 24,
            "componentType" : 5126,
            "count" : 253,
            "max" : [
                0.018284983932971954,
                0.014536176808178425,
                -0.03730252385139465
            ],
            "min" : [
                0.00328125455416739,
                -0.00017122080316767097,
                -0.053320374339818954
            ],
            "type" : "VEC3"
        },
        {
            "bufferView" : 25,
            "componentType" : 5126,
            "count" : 253,
            "type" : "VEC3"
        },
        {
            "bufferView" : 26,
            "componentType" : 5126,
            "count" : 253,
            "type" : "VEC4"
        },
        {
            "bufferView" : 27,
            "componentType" : 5126,
            "count" : 253,
            "type" : "VEC2"
        },
        {
            "bufferView" : 28,
            "componentType" : 5123,
            "count" : 1182,
            "type" : "SCALAR"
        },
        {
            "bufferView" : 29,
            "componentType" : 5126,
            "count" : 192,
            "max" : [
                0.015056323260068893,
                0.04378439858555794,
                -0.037177715450525284
            ],
            "min" : [
                -0.010636687278747559,
                0.02486388385295868,
                -0.062355510890483856
            ],
            "type" : "VEC3"
        },
        {
            "bufferView" : 30,
            "componentType" : 5126,
            "count" : 192,
            "type" : "VEC3"
        },
        {
            "bufferView" : 31,
            "componentType" : 5126,
            "count" : 192,
            "type" : "VEC4"
        },
        {
            "bufferView" : 32,
            "componentType" : 5126,
            "count" : 192,
            "type" : "VEC2"
        },
        {
            "bufferView" : 33,
            "componentType" : 5123,
            "count" : 948,
            "type" : "SCALAR"
        }
    ],
    "bufferViews" : [
        {
            "buffer" : 0,
            "byteLength" : 33720,
            "byteOffset" : 0
        },
        {
            "buffer" : 0,
            "byteLength" : 33720,
            "byteOffset" : 33720
        },
        {
            "buffer" : 0,
            "byteLength" : 44960,
            "byteOffset" : 67440
        },
        {
            "buffer" : 0,
            "byteLength" : 22480,
            "byteOffset" : 112400
        },
        {
            "buffer" : 0,
            "byteLength" : 19584,
            "byteOffset" : 134880
        },
        {
            "buffer" : 0,
            "byteLength" : 2016,
            "byteOffset" : 154464
        },
        {
            "buffer" : 0,
            "byteLength" : 2016,
            "byteOffset" : 156480
        },
        {
            "buffer" : 0,
            "byteLength" : 2688,
            "byteOffset" : 158496
        },
        {
            "buffer" : 0,
            "byteLength" : 1344,
            "byteOffset" : 161184
        },
        {
            "buffer" : 0,
            "byteLength" : 1128,
            "byteOffset" : 162528
        },
        {
            "buffer" : 0,
            "byteLength" : 2016,
            "byteOffset" : 163656
        },
        {
            "buffer" : 0,
            "byteLength" : 2016,
            "byteOffset" : 165672
        },
        {
            "buffer" : 0,
            "byteLength" : 2688,
            "byteOffset" : 167688
        },
        {
            "buffer" : 0,
            "byteLength" : 1344,
            "byteOffset" : 170376
        },
        {
            "buffer" : 0,
            "byteLength" : 1668,
            "byteOffset" : 171720
        },
        {
            "buffer" : 0,
            "byteLength" : 1668,
            "byteOffset" : 173388
        },
        {
            "buffer" : 0,
            "byteLength" : 2224,
            "byteOffset" : 175056
        },
        {
            "buffer" : 0,
            "byteLength" : 1112,
            "byteOffset" : 177280
        },
        {
            "buffer" : 0,
            "byteLength" : 636,
            "byteOffset" : 178392
        },
        {
            "buffer" : 0,
            "byteLength" : 3072,
            "byteOffset" : 179028
        },
        {
            "buffer" : 0,
            "byteLength" : 3072,
            "byteOffset" : 182100
        },
        {
            "buffer" : 0,
            "byteLength" : 4096,
            "byteOffset" : 185172
        },
        {
            "buffer" : 0,
            "byteLength" : 2048,
            "byteOffset" : 189268
        },
        {
            "buffer" : 0,
            "byteLength" : 1896,
            "byteOffset" : 191316
        },
        {
            "buffer" : 0,
            "byteLength" : 3036,
            "byteOffset" : 193212
        },
        {
            "buffer" : 0,
            "byteLength" : 3036,
            "byteOffset" : 196248
        },
        {
            "buffer" : 0,
            "byteLength" : 4048,
            "byteOffset" : 199284
        },
        {
            "buffer" : 0,
            "byteLength" : 2024,
            "byteOffset" : 203332
        },
        {
            "buffer" : 0,
            "byteLength" : 2364,
            "byteOffset" : 205356
        },
        {
            "buffer" : 0,
            "byteLength" : 2304,
            "byteOffset" : 207720
        },
        {
            "buffer" : 0,
            "byteLength" : 2304,
            "byteOffset" : 210024
        },
        {
            "buffer" : 0,
            "byteLength" : 3072,
            "byteOffset" : 212328
        },
        {
            "buffer" : 0,
            "byteLength" : 1536,
            "byteOffset" : 215400
        },
        {
            "buffer" : 0,
            "byteLength" : 1896,
            "byteOffset" : 216936
        }
    ],
    "buffers" : [
        {
            "byteLength" : 218832,
            "uri" : "RightTouchController.bin"
        }
    ]
}
