# 3ds Max Wavefront OBJ Exporter v0.97b - (c)2007 guruware
# File Created: 08.02.2020 11:04:27

#
# object Cylinder001
#

v  0.0000 -0.5000 -0.0000
v  0.1207 -0.5000 -0.0324
v  0.1250 -0.5000 -0.0000
v  0.1083 -0.5000 -0.0625
v  0.0884 -0.5000 -0.0884
v  0.0625 -0.5000 -0.1083
v  0.0324 -0.5000 -0.1207
v  0.0000 -0.5000 -0.1250
v  -0.0324 -0.5000 -0.1207
v  -0.0625 -0.5000 -0.1083
v  -0.0884 -0.5000 -0.0884
v  -0.1083 -0.5000 -0.0625
v  -0.1207 -0.5000 -0.0324
v  -0.1250 -0.5000 -0.0000
v  -0.1207 -0.5000 0.0324
v  -0.1083 -0.5000 0.0625
v  -0.0884 -0.5000 0.0884
v  -0.0625 -0.5000 0.1083
v  -0.0324 -0.5000 0.1207
v  -0.0000 -0.5000 0.1250
v  0.0324 -0.5000 0.1207
v  0.0625 -0.5000 0.1083
v  0.0884 -0.5000 0.0884
v  0.1083 -0.5000 0.0625
v  0.1207 -0.5000 0.0324
v  0.2415 -0.5000 -0.0647
v  0.2500 -0.5000 -0.0000
v  0.2165 -0.5000 -0.1250
v  0.1768 -0.5000 -0.1768
v  0.1250 -0.5000 -0.2165
v  0.0647 -0.5000 -0.2415
v  0.0000 -0.5000 -0.2500
v  -0.0647 -0.5000 -0.2415
v  -0.1250 -0.5000 -0.2165
v  -0.1768 -0.5000 -0.1768
v  -0.2165 -0.5000 -0.1250
v  -0.2415 -0.5000 -0.0647
v  -0.2500 -0.5000 -0.0000
v  -0.2415 -0.5000 0.0647
v  -0.2165 -0.5000 0.1250
v  -0.1768 -0.5000 0.1768
v  -0.1250 -0.5000 0.2165
v  -0.0647 -0.5000 0.2415
v  -0.0000 -0.5000 0.2500
v  0.0647 -0.5000 0.2415
v  0.1250 -0.5000 0.2165
v  0.1768 -0.5000 0.1768
v  0.2165 -0.5000 0.1250
v  0.2415 -0.5000 0.0647
v  0.2415 -0.3000 -0.0647
v  0.2500 -0.3000 -0.0000
v  0.2165 -0.3000 -0.1250
v  0.1768 -0.3000 -0.1768
v  0.1250 -0.3000 -0.2165
v  0.0647 -0.3000 -0.2415
v  0.0000 -0.3000 -0.2500
v  -0.0647 -0.3000 -0.2415
v  -0.1250 -0.3000 -0.2165
v  -0.1768 -0.3000 -0.1768
v  -0.2165 -0.3000 -0.1250
v  -0.2415 -0.3000 -0.0647
v  -0.2500 -0.3000 -0.0000
v  -0.2415 -0.3000 0.0647
v  -0.2165 -0.3000 0.1250
v  -0.1768 -0.3000 0.1768
v  -0.1250 -0.3000 0.2165
v  -0.0647 -0.3000 0.2415
v  -0.0000 -0.3000 0.2500
v  0.0647 -0.3000 0.2415
v  0.1250 -0.3000 0.2165
v  0.1768 -0.3000 0.1768
v  0.2165 -0.3000 0.1250
v  0.2415 -0.3000 0.0647
v  0.2415 -0.1000 -0.0647
v  0.2500 -0.1000 -0.0000
v  0.2165 -0.1000 -0.1250
v  0.1768 -0.1000 -0.1768
v  0.1250 -0.1000 -0.2165
v  0.0647 -0.1000 -0.2415
v  0.0000 -0.1000 -0.2500
v  -0.0647 -0.1000 -0.2415
v  -0.1250 -0.1000 -0.2165
v  -0.1768 -0.1000 -0.1768
v  -0.2165 -0.1000 -0.1250
v  -0.2415 -0.1000 -0.0647
v  -0.2500 -0.1000 -0.0000
v  -0.2415 -0.1000 0.0647
v  -0.2165 -0.1000 0.1250
v  -0.1768 -0.1000 0.1768
v  -0.1250 -0.1000 0.2165
v  -0.0647 -0.1000 0.2415
v  -0.0000 -0.1000 0.2500
v  0.0647 -0.1000 0.2415
v  0.1250 -0.1000 0.2165
v  0.1768 -0.1000 0.1768
v  0.2165 -0.1000 0.1250
v  0.2415 -0.1000 0.0647
v  0.2415 0.1000 -0.0647
v  0.2500 0.1000 -0.0000
v  0.2165 0.1000 -0.1250
v  0.1768 0.1000 -0.1768
v  0.1250 0.1000 -0.2165
v  0.0647 0.1000 -0.2415
v  0.0000 0.1000 -0.2500
v  -0.0647 0.1000 -0.2415
v  -0.1250 0.1000 -0.2165
v  -0.1768 0.1000 -0.1768
v  -0.2165 0.1000 -0.1250
v  -0.2415 0.1000 -0.0647
v  -0.2500 0.1000 -0.0000
v  -0.2415 0.1000 0.0647
v  -0.2165 0.1000 0.1250
v  -0.1768 0.1000 0.1768
v  -0.1250 0.1000 0.2165
v  -0.0647 0.1000 0.2415
v  -0.0000 0.1000 0.2500
v  0.0647 0.1000 0.2415
v  0.1250 0.1000 0.2165
v  0.1768 0.1000 0.1768
v  0.2165 0.1000 0.1250
v  0.2415 0.1000 0.0647
v  0.2415 0.3000 -0.0647
v  0.2500 0.3000 -0.0000
v  0.2165 0.3000 -0.1250
v  0.1768 0.3000 -0.1768
v  0.1250 0.3000 -0.2165
v  0.0647 0.3000 -0.2415
v  0.0000 0.3000 -0.2500
v  -0.0647 0.3000 -0.2415
v  -0.1250 0.3000 -0.2165
v  -0.1768 0.3000 -0.1768
v  -0.2165 0.3000 -0.1250
v  -0.2415 0.3000 -0.0647
v  -0.2500 0.3000 -0.0000
v  -0.2415 0.3000 0.0647
v  -0.2165 0.3000 0.1250
v  -0.1768 0.3000 0.1768
v  -0.1250 0.3000 0.2165
v  -0.0647 0.3000 0.2415
v  -0.0000 0.3000 0.2500
v  0.0647 0.3000 0.2415
v  0.1250 0.3000 0.2165
v  0.1768 0.3000 0.1768
v  0.2165 0.3000 0.1250
v  0.2415 0.3000 0.0647
v  0.2415 0.5000 -0.0647
v  0.2500 0.5000 -0.0000
v  0.2165 0.5000 -0.1250
v  0.1768 0.5000 -0.1768
v  0.1250 0.5000 -0.2165
v  0.0647 0.5000 -0.2415
v  0.0000 0.5000 -0.2500
v  -0.0647 0.5000 -0.2415
v  -0.1250 0.5000 -0.2165
v  -0.1768 0.5000 -0.1768
v  -0.2165 0.5000 -0.1250
v  -0.2415 0.5000 -0.0647
v  -0.2500 0.5000 -0.0000
v  -0.2415 0.5000 0.0647
v  -0.2165 0.5000 0.1250
v  -0.1768 0.5000 0.1768
v  -0.1250 0.5000 0.2165
v  -0.0647 0.5000 0.2415
v  -0.0000 0.5000 0.2500
v  0.0647 0.5000 0.2415
v  0.1250 0.5000 0.2165
v  0.1768 0.5000 0.1768
v  0.2165 0.5000 0.1250
v  0.2415 0.5000 0.0647
v  0.1207 0.5000 -0.0324
v  0.1250 0.5000 -0.0000
v  0.1083 0.5000 -0.0625
v  0.0884 0.5000 -0.0884
v  0.0625 0.5000 -0.1083
v  0.0324 0.5000 -0.1207
v  0.0000 0.5000 -0.1250
v  -0.0324 0.5000 -0.1207
v  -0.0625 0.5000 -0.1083
v  -0.0884 0.5000 -0.0884
v  -0.1083 0.5000 -0.0625
v  -0.1207 0.5000 -0.0324
v  -0.1250 0.5000 -0.0000
v  -0.1207 0.5000 0.0324
v  -0.1083 0.5000 0.0625
v  -0.0884 0.5000 0.0884
v  -0.0625 0.5000 0.1083
v  -0.0324 0.5000 0.1207
v  -0.0000 0.5000 0.1250
v  0.0324 0.5000 0.1207
v  0.0625 0.5000 0.1083
v  0.0884 0.5000 0.0884
v  0.1083 0.5000 0.0625
v  0.1207 0.5000 0.0324
v  0.0000 0.5000 -0.0000
# 194 vertices

vn 0.0000 -1.0000 -0.0000
vn 1.0000 0.0000 0.0000
vn 0.9659 0.0000 -0.2588
vn 0.8660 0.0000 -0.5000
vn 0.7071 0.0000 -0.7071
vn 0.5000 0.0000 -0.8660
vn 0.2588 0.0000 -0.9659
vn 0.0000 0.0000 -1.0000
vn -0.2588 0.0000 -0.9659
vn -0.5000 0.0000 -0.8660
vn -0.7071 0.0000 -0.7071
vn -0.8660 0.0000 -0.5000
vn -0.9659 0.0000 -0.2588
vn -1.0000 0.0000 -0.0000
vn -0.9659 0.0000 0.2588
vn -0.8660 0.0000 0.5000
vn -0.7071 0.0000 0.7071
vn -0.5000 0.0000 0.8660
vn -0.2588 0.0000 0.9659
vn -0.0000 0.0000 1.0000
vn 0.2588 0.0000 0.9659
vn 0.5000 0.0000 0.8660
vn 0.7071 0.0000 0.7071
vn 0.8660 0.0000 0.5000
vn 0.9659 0.0000 0.2588
vn 0.0000 1.0000 -0.0000
# 26 vertex normals

vt 0.5000 0.5000 -0.2500
vt 0.4353 0.7415 -0.2500
vt 0.5000 0.7500 -0.2500
vt 0.3750 0.7165 -0.2500
vt 0.3232 0.6768 -0.2500
vt 0.2835 0.6250 -0.2500
vt 0.2585 0.5647 -0.2500
vt 0.2500 0.5000 -0.2500
vt 0.2585 0.4353 -0.2500
vt 0.2835 0.3750 -0.2500
vt 0.3232 0.3232 -0.2500
vt 0.3750 0.2835 -0.2500
vt 0.4353 0.2585 -0.2500
vt 0.5000 0.2500 -0.2500
vt 0.5647 0.2585 -0.2500
vt 0.6250 0.2835 -0.2500
vt 0.6768 0.3232 -0.2500
vt 0.7165 0.3750 -0.2500
vt 0.7415 0.4353 -0.2500
vt 0.7500 0.5000 -0.2500
vt 0.7415 0.5647 -0.2500
vt 0.7165 0.6250 -0.2500
vt 0.6768 0.6768 -0.2500
vt 0.6250 0.7165 -0.2500
vt 0.5647 0.7415 -0.2500
vt 0.3706 0.9830 -0.2500
vt 0.5000 1.0000 -0.2500
vt 0.2500 0.9330 -0.2500
vt 0.1464 0.8536 -0.2500
vt 0.0670 0.7500 -0.2500
vt 0.0170 0.6294 -0.2500
vt 0.0000 0.5000 -0.2500
vt 0.0170 0.3706 -0.2500
vt 0.0670 0.2500 -0.2500
vt 0.1464 0.1464 -0.2500
vt 0.2500 0.0670 -0.2500
vt 0.3706 0.0170 -0.2500
vt 0.5000 0.0000 -0.2500
vt 0.6294 0.0170 -0.2500
vt 0.7500 0.0670 -0.2500
vt 0.8536 0.1464 -0.2500
vt 0.9330 0.2500 -0.2500
vt 0.9830 0.3706 -0.2500
vt 1.0000 0.5000 -0.2500
vt 0.9830 0.6294 -0.2500
vt 0.9330 0.7500 -0.2500
vt 0.8536 0.8536 -0.2500
vt 0.7500 0.9330 -0.2500
vt 0.6294 0.9830 -0.2500
vt 0.7500 0.0000 1.0000
vt 0.7917 0.2000 1.0000
vt 0.7500 0.2000 1.0000
vt 0.7917 0.0000 1.0000
vt 0.8333 0.2000 1.0000
vt 0.8333 0.0000 1.0000
vt 0.8750 0.2000 1.0000
vt 0.8750 0.0000 1.0000
vt 0.9167 0.2000 1.0000
vt 0.9167 0.0000 1.0000
vt 0.9583 0.2000 1.0000
vt 0.9583 0.0000 1.0000
vt 1.0000 0.2000 1.0000
vt 1.0000 0.0000 1.0000
vt -0.0000 0.0000 1.0000
vt 0.0417 0.2000 1.0000
vt -0.0000 0.2000 1.0000
vt 0.0417 0.0000 1.0000
vt 0.0833 0.2000 1.0000
vt 0.0833 0.0000 1.0000
vt 0.1250 0.2000 1.0000
vt 0.1250 0.0000 1.0000
vt 0.1667 0.2000 1.0000
vt 0.1667 0.0000 1.0000
vt 0.2083 0.2000 1.0000
vt 0.2083 0.0000 1.0000
vt 0.2500 0.2000 1.0000
vt 0.2500 0.0000 1.0000
vt 0.2917 0.2000 1.0000
vt 0.2917 0.0000 1.0000
vt 0.3333 0.2000 1.0000
vt 0.3333 0.0000 1.0000
vt 0.3750 0.2000 1.0000
vt 0.3750 0.0000 1.0000
vt 0.4167 0.2000 1.0000
vt 0.4167 0.0000 1.0000
vt 0.4583 0.2000 1.0000
vt 0.4583 0.0000 1.0000
vt 0.5000 0.2000 1.0000
vt 0.5000 0.0000 1.0000
vt 0.5417 0.2000 1.0000
vt 0.5417 0.0000 1.0000
vt 0.5833 0.2000 1.0000
vt 0.5833 0.0000 1.0000
vt 0.6250 0.2000 1.0000
vt 0.6250 0.0000 1.0000
vt 0.6667 0.2000 1.0000
vt 0.6667 0.0000 1.0000
vt 0.7083 0.2000 1.0000
vt 0.7083 0.0000 1.0000
vt 0.7917 0.4000 1.0000
vt 0.7500 0.4000 1.0000
vt 0.8333 0.4000 1.0000
vt 0.8750 0.4000 1.0000
vt 0.9167 0.4000 1.0000
vt 0.9583 0.4000 1.0000
vt 1.0000 0.4000 1.0000
vt 0.0417 0.4000 1.0000
vt -0.0000 0.4000 1.0000
vt 0.0833 0.4000 1.0000
vt 0.1250 0.4000 1.0000
vt 0.1667 0.4000 1.0000
vt 0.2083 0.4000 1.0000
vt 0.2500 0.4000 1.0000
vt 0.2917 0.4000 1.0000
vt 0.3333 0.4000 1.0000
vt 0.3750 0.4000 1.0000
vt 0.4167 0.4000 1.0000
vt 0.4583 0.4000 1.0000
vt 0.5000 0.4000 1.0000
vt 0.5417 0.4000 1.0000
vt 0.5833 0.4000 1.0000
vt 0.6250 0.4000 1.0000
vt 0.6667 0.4000 1.0000
vt 0.7083 0.4000 1.0000
vt 0.7917 0.6000 1.0000
vt 0.7500 0.6000 1.0000
vt 0.8333 0.6000 1.0000
vt 0.8750 0.6000 1.0000
vt 0.9167 0.6000 1.0000
vt 0.9583 0.6000 1.0000
vt 1.0000 0.6000 1.0000
vt 0.0417 0.6000 1.0000
vt -0.0000 0.6000 1.0000
vt 0.0833 0.6000 1.0000
vt 0.1250 0.6000 1.0000
vt 0.1667 0.6000 1.0000
vt 0.2083 0.6000 1.0000
vt 0.2500 0.6000 1.0000
vt 0.2917 0.6000 1.0000
vt 0.3333 0.6000 1.0000
vt 0.3750 0.6000 1.0000
vt 0.4167 0.6000 1.0000
vt 0.4583 0.6000 1.0000
vt 0.5000 0.6000 1.0000
vt 0.5417 0.6000 1.0000
vt 0.5833 0.6000 1.0000
vt 0.6250 0.6000 1.0000
vt 0.6667 0.6000 1.0000
vt 0.7083 0.6000 1.0000
vt 0.7917 0.8000 1.0000
vt 0.7500 0.8000 1.0000
vt 0.8333 0.8000 1.0000
vt 0.8750 0.8000 1.0000
vt 0.9167 0.8000 1.0000
vt 0.9583 0.8000 1.0000
vt 1.0000 0.8000 1.0000
vt 0.0417 0.8000 1.0000
vt -0.0000 0.8000 1.0000
vt 0.0833 0.8000 1.0000
vt 0.1250 0.8000 1.0000
vt 0.1667 0.8000 1.0000
vt 0.2083 0.8000 1.0000
vt 0.2500 0.8000 1.0000
vt 0.2917 0.8000 1.0000
vt 0.3333 0.8000 1.0000
vt 0.3750 0.8000 1.0000
vt 0.4167 0.8000 1.0000
vt 0.4583 0.8000 1.0000
vt 0.5000 0.8000 1.0000
vt 0.5417 0.8000 1.0000
vt 0.5833 0.8000 1.0000
vt 0.6250 0.8000 1.0000
vt 0.6667 0.8000 1.0000
vt 0.7083 0.8000 1.0000
vt 0.7917 1.0000 1.0000
vt 0.7500 1.0000 1.0000
vt 0.8333 1.0000 1.0000
vt 0.8750 1.0000 1.0000
vt 0.9167 1.0000 1.0000
vt 0.9583 1.0000 1.0000
vt 1.0000 1.0000 1.0000
vt 0.0417 1.0000 1.0000
vt -0.0000 1.0000 1.0000
vt 0.0833 1.0000 1.0000
vt 0.1250 1.0000 1.0000
vt 0.1667 1.0000 1.0000
vt 0.2083 1.0000 1.0000
vt 0.2500 1.0000 1.0000
vt 0.2917 1.0000 1.0000
vt 0.3333 1.0000 1.0000
vt 0.3750 1.0000 1.0000
vt 0.4167 1.0000 1.0000
vt 0.4583 1.0000 1.0000
vt 0.5000 1.0000 1.0000
vt 0.5417 1.0000 1.0000
vt 0.5833 1.0000 1.0000
vt 0.6250 1.0000 1.0000
vt 0.6667 1.0000 1.0000
vt 0.7083 1.0000 1.0000
vt 0.5000 1.0000 0.2500
vt 0.4353 0.7415 0.2500
vt 0.5000 0.7500 0.2500
vt 0.3706 0.9830 0.2500
vt 0.3750 0.7165 0.2500
vt 0.2500 0.9330 0.2500
vt 0.3232 0.6768 0.2500
vt 0.1464 0.8536 0.2500
vt 0.2835 0.6250 0.2500
vt 0.0670 0.7500 0.2500
vt 0.2585 0.5647 0.2500
vt 0.0170 0.6294 0.2500
vt 0.2500 0.5000 0.2500
vt 0.0000 0.5000 0.2500
vt 0.2585 0.4353 0.2500
vt 0.0170 0.3706 0.2500
vt 0.2835 0.3750 0.2500
vt 0.0670 0.2500 0.2500
vt 0.3232 0.3232 0.2500
vt 0.1464 0.1464 0.2500
vt 0.3750 0.2835 0.2500
vt 0.2500 0.0670 0.2500
vt 0.4353 0.2585 0.2500
vt 0.3706 0.0170 0.2500
vt 0.5000 0.2500 0.2500
vt 0.5000 0.0000 0.2500
vt 0.5647 0.2585 0.2500
vt 0.6294 0.0170 0.2500
vt 0.6250 0.2835 0.2500
vt 0.7500 0.0670 0.2500
vt 0.6768 0.3232 0.2500
vt 0.8536 0.1464 0.2500
vt 0.7165 0.3750 0.2500
vt 0.9330 0.2500 0.2500
vt 0.7415 0.4353 0.2500
vt 0.9830 0.3706 0.2500
vt 0.7500 0.5000 0.2500
vt 1.0000 0.5000 0.2500
vt 0.7415 0.5647 0.2500
vt 0.9830 0.6294 0.2500
vt 0.7165 0.6250 0.2500
vt 0.9330 0.7500 0.2500
vt 0.6768 0.6768 0.2500
vt 0.8536 0.8536 0.2500
vt 0.6250 0.7165 0.2500
vt 0.7500 0.9330 0.2500
vt 0.5647 0.7415 0.2500
vt 0.6294 0.9830 0.2500
vt 0.5000 0.5000 0.2500
# 248 texture coords

g Cylinder001
s 1
f 1/1/1 2/2/1 3/3/1 
f 1/1/1 4/4/1 2/2/1 
f 1/1/1 5/5/1 4/4/1 
f 1/1/1 6/6/1 5/5/1 
f 1/1/1 7/7/1 6/6/1 
f 1/1/1 8/8/1 7/7/1 
f 1/1/1 9/9/1 8/8/1 
f 1/1/1 10/10/1 9/9/1 
f 1/1/1 11/11/1 10/10/1 
f 1/1/1 12/12/1 11/11/1 
f 1/1/1 13/13/1 12/12/1 
f 1/1/1 14/14/1 13/13/1 
f 1/1/1 15/15/1 14/14/1 
f 1/1/1 16/16/1 15/15/1 
f 1/1/1 17/17/1 16/16/1 
f 1/1/1 18/18/1 17/17/1 
f 1/1/1 19/19/1 18/18/1 
f 1/1/1 20/20/1 19/19/1 
f 1/1/1 21/21/1 20/20/1 
f 1/1/1 22/22/1 21/21/1 
f 1/1/1 23/23/1 22/22/1 
f 1/1/1 24/24/1 23/23/1 
f 1/1/1 25/25/1 24/24/1 
f 1/1/1 3/3/1 25/25/1 
f 3/3/1 26/26/1 27/27/1 
f 3/3/1 2/2/1 26/26/1 
f 2/2/1 28/28/1 26/26/1 
f 2/2/1 4/4/1 28/28/1 
f 4/4/1 29/29/1 28/28/1 
f 4/4/1 5/5/1 29/29/1 
f 5/5/1 30/30/1 29/29/1 
f 5/5/1 6/6/1 30/30/1 
f 6/6/1 31/31/1 30/30/1 
f 6/6/1 7/7/1 31/31/1 
f 7/7/1 32/32/1 31/31/1 
f 7/7/1 8/8/1 32/32/1 
f 8/8/1 33/33/1 32/32/1 
f 8/8/1 9/9/1 33/33/1 
f 9/9/1 34/34/1 33/33/1 
f 9/9/1 10/10/1 34/34/1 
f 10/10/1 35/35/1 34/34/1 
f 10/10/1 11/11/1 35/35/1 
f 11/11/1 36/36/1 35/35/1 
f 11/11/1 12/12/1 36/36/1 
f 12/12/1 37/37/1 36/36/1 
f 12/12/1 13/13/1 37/37/1 
f 13/13/1 38/38/1 37/37/1 
f 13/13/1 14/14/1 38/38/1 
f 14/14/1 39/39/1 38/38/1 
f 14/14/1 15/15/1 39/39/1 
f 15/15/1 40/40/1 39/39/1 
f 15/15/1 16/16/1 40/40/1 
f 16/16/1 41/41/1 40/40/1 
f 16/16/1 17/17/1 41/41/1 
f 17/17/1 42/42/1 41/41/1 
f 17/17/1 18/18/1 42/42/1 
f 18/18/1 43/43/1 42/42/1 
f 18/18/1 19/19/1 43/43/1 
f 19/19/1 44/44/1 43/43/1 
f 19/19/1 20/20/1 44/44/1 
f 20/20/1 45/45/1 44/44/1 
f 20/20/1 21/21/1 45/45/1 
f 21/21/1 46/46/1 45/45/1 
f 21/21/1 22/22/1 46/46/1 
f 22/22/1 47/47/1 46/46/1 
f 22/22/1 23/23/1 47/47/1 
f 23/23/1 48/48/1 47/47/1 
f 23/23/1 24/24/1 48/48/1 
f 24/24/1 49/49/1 48/48/1 
f 24/24/1 25/25/1 49/49/1 
f 25/25/1 27/27/1 49/49/1 
f 25/25/1 3/3/1 27/27/1 
s 8
f 27/50/2 50/51/3 51/52/2 
f 27/50/2 26/53/3 50/51/3 
f 26/53/3 52/54/4 50/51/3 
f 26/53/3 28/55/4 52/54/4 
f 28/55/4 53/56/5 52/54/4 
f 28/55/4 29/57/5 53/56/5 
f 29/57/5 54/58/6 53/56/5 
f 29/57/5 30/59/6 54/58/6 
f 30/59/6 55/60/7 54/58/6 
f 30/59/6 31/61/7 55/60/7 
f 31/61/7 56/62/8 55/60/7 
f 31/61/7 32/63/8 56/62/8 
f 32/64/8 57/65/9 56/66/8 
f 32/64/8 33/67/9 57/65/9 
f 33/67/9 58/68/10 57/65/9 
f 33/67/9 34/69/10 58/68/10 
f 34/69/10 59/70/11 58/68/10 
f 34/69/10 35/71/11 59/70/11 
f 35/71/11 60/72/12 59/70/11 
f 35/71/11 36/73/12 60/72/12 
f 36/73/12 61/74/13 60/72/12 
f 36/73/12 37/75/13 61/74/13 
f 37/75/13 62/76/14 61/74/13 
f 37/75/13 38/77/14 62/76/14 
f 38/77/14 63/78/15 62/76/14 
f 38/77/14 39/79/15 63/78/15 
f 39/79/15 64/80/16 63/78/15 
f 39/79/15 40/81/16 64/80/16 
f 40/81/16 65/82/17 64/80/16 
f 40/81/16 41/83/17 65/82/17 
f 41/83/17 66/84/18 65/82/17 
f 41/83/17 42/85/18 66/84/18 
f 42/85/18 67/86/19 66/84/18 
f 42/85/18 43/87/19 67/86/19 
f 43/87/19 68/88/20 67/86/19 
f 43/87/19 44/89/20 68/88/20 
f 44/89/20 69/90/21 68/88/20 
f 44/89/20 45/91/21 69/90/21 
f 45/91/21 70/92/22 69/90/21 
f 45/91/21 46/93/22 70/92/22 
f 46/93/22 71/94/23 70/92/22 
f 46/93/22 47/95/23 71/94/23 
f 47/95/23 72/96/24 71/94/23 
f 47/95/23 48/97/24 72/96/24 
f 48/97/24 73/98/25 72/96/24 
f 48/97/24 49/99/25 73/98/25 
f 49/99/25 51/52/2 73/98/25 
f 49/99/25 27/50/2 51/52/2 
f 51/52/2 74/100/3 75/101/2 
f 51/52/2 50/51/3 74/100/3 
f 50/51/3 76/102/4 74/100/3 
f 50/51/3 52/54/4 76/102/4 
f 52/54/4 77/103/5 76/102/4 
f 52/54/4 53/56/5 77/103/5 
f 53/56/5 78/104/6 77/103/5 
f 53/56/5 54/58/6 78/104/6 
f 54/58/6 79/105/7 78/104/6 
f 54/58/6 55/60/7 79/105/7 
f 55/60/7 80/106/8 79/105/7 
f 55/60/7 56/62/8 80/106/8 
f 56/66/8 81/107/9 80/108/8 
f 56/66/8 57/65/9 81/107/9 
f 57/65/9 82/109/10 81/107/9 
f 57/65/9 58/68/10 82/109/10 
f 58/68/10 83/110/11 82/109/10 
f 58/68/10 59/70/11 83/110/11 
f 59/70/11 84/111/12 83/110/11 
f 59/70/11 60/72/12 84/111/12 
f 60/72/12 85/112/13 84/111/12 
f 60/72/12 61/74/13 85/112/13 
f 61/74/13 86/113/14 85/112/13 
f 61/74/13 62/76/14 86/113/14 
f 62/76/14 87/114/15 86/113/14 
f 62/76/14 63/78/15 87/114/15 
f 63/78/15 88/115/16 87/114/15 
f 63/78/15 64/80/16 88/115/16 
f 64/80/16 89/116/17 88/115/16 
f 64/80/16 65/82/17 89/116/17 
f 65/82/17 90/117/18 89/116/17 
f 65/82/17 66/84/18 90/117/18 
f 66/84/18 91/118/19 90/117/18 
f 66/84/18 67/86/19 91/118/19 
f 67/86/19 92/119/20 91/118/19 
f 67/86/19 68/88/20 92/119/20 
f 68/88/20 93/120/21 92/119/20 
f 68/88/20 69/90/21 93/120/21 
f 69/90/21 94/121/22 93/120/21 
f 69/90/21 70/92/22 94/121/22 
f 70/92/22 95/122/23 94/121/22 
f 70/92/22 71/94/23 95/122/23 
f 71/94/23 96/123/24 95/122/23 
f 71/94/23 72/96/24 96/123/24 
f 72/96/24 97/124/25 96/123/24 
f 72/96/24 73/98/25 97/124/25 
f 73/98/25 75/101/2 97/124/25 
f 73/98/25 51/52/2 75/101/2 
f 75/101/2 98/125/3 99/126/2 
f 75/101/2 74/100/3 98/125/3 
f 74/100/3 100/127/4 98/125/3 
f 74/100/3 76/102/4 100/127/4 
f 76/102/4 101/128/5 100/127/4 
f 76/102/4 77/103/5 101/128/5 
f 77/103/5 102/129/6 101/128/5 
f 77/103/5 78/104/6 102/129/6 
f 78/104/6 103/130/7 102/129/6 
f 78/104/6 79/105/7 103/130/7 
f 79/105/7 104/131/8 103/130/7 
f 79/105/7 80/106/8 104/131/8 
f 80/108/8 105/132/9 104/133/8 
f 80/108/8 81/107/9 105/132/9 
f 81/107/9 106/134/10 105/132/9 
f 81/107/9 82/109/10 106/134/10 
f 82/109/10 107/135/11 106/134/10 
f 82/109/10 83/110/11 107/135/11 
f 83/110/11 108/136/12 107/135/11 
f 83/110/11 84/111/12 108/136/12 
f 84/111/12 109/137/13 108/136/12 
f 84/111/12 85/112/13 109/137/13 
f 85/112/13 110/138/14 109/137/13 
f 85/112/13 86/113/14 110/138/14 
f 86/113/14 111/139/15 110/138/14 
f 86/113/14 87/114/15 111/139/15 
f 87/114/15 112/140/16 111/139/15 
f 87/114/15 88/115/16 112/140/16 
f 88/115/16 113/141/17 112/140/16 
f 88/115/16 89/116/17 113/141/17 
f 89/116/17 114/142/18 113/141/17 
f 89/116/17 90/117/18 114/142/18 
f 90/117/18 115/143/19 114/142/18 
f 90/117/18 91/118/19 115/143/19 
f 91/118/19 116/144/20 115/143/19 
f 91/118/19 92/119/20 116/144/20 
f 92/119/20 117/145/21 116/144/20 
f 92/119/20 93/120/21 117/145/21 
f 93/120/21 118/146/22 117/145/21 
f 93/120/21 94/121/22 118/146/22 
f 94/121/22 119/147/23 118/146/22 
f 94/121/22 95/122/23 119/147/23 
f 95/122/23 120/148/24 119/147/23 
f 95/122/23 96/123/24 120/148/24 
f 96/123/24 121/149/25 120/148/24 
f 96/123/24 97/124/25 121/149/25 
f 97/124/25 99/126/2 121/149/25 
f 97/124/25 75/101/2 99/126/2 
f 99/126/2 122/150/3 123/151/2 
f 99/126/2 98/125/3 122/150/3 
f 98/125/3 124/152/4 122/150/3 
f 98/125/3 100/127/4 124/152/4 
f 100/127/4 125/153/5 124/152/4 
f 100/127/4 101/128/5 125/153/5 
f 101/128/5 126/154/6 125/153/5 
f 101/128/5 102/129/6 126/154/6 
f 102/129/6 127/155/7 126/154/6 
f 102/129/6 103/130/7 127/155/7 
f 103/130/7 128/156/8 127/155/7 
f 103/130/7 104/131/8 128/156/8 
f 104/133/8 129/157/9 128/158/8 
f 104/133/8 105/132/9 129/157/9 
f 105/132/9 130/159/10 129/157/9 
f 105/132/9 106/134/10 130/159/10 
f 106/134/10 131/160/11 130/159/10 
f 106/134/10 107/135/11 131/160/11 
f 107/135/11 132/161/12 131/160/11 
f 107/135/11 108/136/12 132/161/12 
f 108/136/12 133/162/13 132/161/12 
f 108/136/12 109/137/13 133/162/13 
f 109/137/13 134/163/14 133/162/13 
f 109/137/13 110/138/14 134/163/14 
f 110/138/14 135/164/15 134/163/14 
f 110/138/14 111/139/15 135/164/15 
f 111/139/15 136/165/16 135/164/15 
f 111/139/15 112/140/16 136/165/16 
f 112/140/16 137/166/17 136/165/16 
f 112/140/16 113/141/17 137/166/17 
f 113/141/17 138/167/18 137/166/17 
f 113/141/17 114/142/18 138/167/18 
f 114/142/18 139/168/19 138/167/18 
f 114/142/18 115/143/19 139/168/19 
f 115/143/19 140/169/20 139/168/19 
f 115/143/19 116/144/20 140/169/20 
f 116/144/20 141/170/21 140/169/20 
f 116/144/20 117/145/21 141/170/21 
f 117/145/21 142/171/22 141/170/21 
f 117/145/21 118/146/22 142/171/22 
f 118/146/22 143/172/23 142/171/22 
f 118/146/22 119/147/23 143/172/23 
f 119/147/23 144/173/24 143/172/23 
f 119/147/23 120/148/24 144/173/24 
f 120/148/24 145/174/25 144/173/24 
f 120/148/24 121/149/25 145/174/25 
f 121/149/25 123/151/2 145/174/25 
f 121/149/25 99/126/2 123/151/2 
f 123/151/2 146/175/3 147/176/2 
f 123/151/2 122/150/3 146/175/3 
f 122/150/3 148/177/4 146/175/3 
f 122/150/3 124/152/4 148/177/4 
f 124/152/4 149/178/5 148/177/4 
f 124/152/4 125/153/5 149/178/5 
f 125/153/5 150/179/6 149/178/5 
f 125/153/5 126/154/6 150/179/6 
f 126/154/6 151/180/7 150/179/6 
f 126/154/6 127/155/7 151/180/7 
f 127/155/7 152/181/8 151/180/7 
f 127/155/7 128/156/8 152/181/8 
f 128/158/8 153/182/9 152/183/8 
f 128/158/8 129/157/9 153/182/9 
f 129/157/9 154/184/10 153/182/9 
f 129/157/9 130/159/10 154/184/10 
f 130/159/10 155/185/11 154/184/10 
f 130/159/10 131/160/11 155/185/11 
f 131/160/11 156/186/12 155/185/11 
f 131/160/11 132/161/12 156/186/12 
f 132/161/12 157/187/13 156/186/12 
f 132/161/12 133/162/13 157/187/13 
f 133/162/13 158/188/14 157/187/13 
f 133/162/13 134/163/14 158/188/14 
f 134/163/14 159/189/15 158/188/14 
f 134/163/14 135/164/15 159/189/15 
f 135/164/15 160/190/16 159/189/15 
f 135/164/15 136/165/16 160/190/16 
f 136/165/16 161/191/17 160/190/16 
f 136/165/16 137/166/17 161/191/17 
f 137/166/17 162/192/18 161/191/17 
f 137/166/17 138/167/18 162/192/18 
f 138/167/18 163/193/19 162/192/18 
f 138/167/18 139/168/19 163/193/19 
f 139/168/19 164/194/20 163/193/19 
f 139/168/19 140/169/20 164/194/20 
f 140/169/20 165/195/21 164/194/20 
f 140/169/20 141/170/21 165/195/21 
f 141/170/21 166/196/22 165/195/21 
f 141/170/21 142/171/22 166/196/22 
f 142/171/22 167/197/23 166/196/22 
f 142/171/22 143/172/23 167/197/23 
f 143/172/23 168/198/24 167/197/23 
f 143/172/23 144/173/24 168/198/24 
f 144/173/24 169/199/25 168/198/24 
f 144/173/24 145/174/25 169/199/25 
f 145/174/25 147/176/2 169/199/25 
f 145/174/25 123/151/2 147/176/2 
s 1
f 147/200/26 170/201/26 171/202/26 
f 147/200/26 146/203/26 170/201/26 
f 146/203/26 172/204/26 170/201/26 
f 146/203/26 148/205/26 172/204/26 
f 148/205/26 173/206/26 172/204/26 
f 148/205/26 149/207/26 173/206/26 
f 149/207/26 174/208/26 173/206/26 
f 149/207/26 150/209/26 174/208/26 
f 150/209/26 175/210/26 174/208/26 
f 150/209/26 151/211/26 175/210/26 
f 151/211/26 176/212/26 175/210/26 
f 151/211/26 152/213/26 176/212/26 
f 152/213/26 177/214/26 176/212/26 
f 152/213/26 153/215/26 177/214/26 
f 153/215/26 178/216/26 177/214/26 
f 153/215/26 154/217/26 178/216/26 
f 154/217/26 179/218/26 178/216/26 
f 154/217/26 155/219/26 179/218/26 
f 155/219/26 180/220/26 179/218/26 
f 155/219/26 156/221/26 180/220/26 
f 156/221/26 181/222/26 180/220/26 
f 156/221/26 157/223/26 181/222/26 
f 157/223/26 182/224/26 181/222/26 
f 157/223/26 158/225/26 182/224/26 
f 158/225/26 183/226/26 182/224/26 
f 158/225/26 159/227/26 183/226/26 
f 159/227/26 184/228/26 183/226/26 
f 159/227/26 160/229/26 184/228/26 
f 160/229/26 185/230/26 184/228/26 
f 160/229/26 161/231/26 185/230/26 
f 161/231/26 186/232/26 185/230/26 
f 161/231/26 162/233/26 186/232/26 
f 162/233/26 187/234/26 186/232/26 
f 162/233/26 163/235/26 187/234/26 
f 163/235/26 188/236/26 187/234/26 
f 163/235/26 164/237/26 188/236/26 
f 164/237/26 189/238/26 188/236/26 
f 164/237/26 165/239/26 189/238/26 
f 165/239/26 190/240/26 189/238/26 
f 165/239/26 166/241/26 190/240/26 
f 166/241/26 191/242/26 190/240/26 
f 166/241/26 167/243/26 191/242/26 
f 167/243/26 192/244/26 191/242/26 
f 167/243/26 168/245/26 192/244/26 
f 168/245/26 193/246/26 192/244/26 
f 168/245/26 169/247/26 193/246/26 
f 169/247/26 171/202/26 193/246/26 
f 169/247/26 147/200/26 171/202/26 
f 194/248/26 171/202/26 170/201/26 
f 194/248/26 170/201/26 172/204/26 
f 194/248/26 172/204/26 173/206/26 
f 194/248/26 173/206/26 174/208/26 
f 194/248/26 174/208/26 175/210/26 
f 194/248/26 175/210/26 176/212/26 
f 194/248/26 176/212/26 177/214/26 
f 194/248/26 177/214/26 178/216/26 
f 194/248/26 178/216/26 179/218/26 
f 194/248/26 179/218/26 180/220/26 
f 194/248/26 180/220/26 181/222/26 
f 194/248/26 181/222/26 182/224/26 
f 194/248/26 182/224/26 183/226/26 
f 194/248/26 183/226/26 184/228/26 
f 194/248/26 184/228/26 185/230/26 
f 194/248/26 185/230/26 186/232/26 
f 194/248/26 186/232/26 187/234/26 
f 194/248/26 187/234/26 188/236/26 
f 194/248/26 188/236/26 189/238/26 
f 194/248/26 189/238/26 190/240/26 
f 194/248/26 190/240/26 191/242/26 
f 194/248/26 191/242/26 192/244/26 
f 194/248/26 192/244/26 193/246/26 
f 194/248/26 193/246/26 171/202/26 
# 384 faces

